<?xml version="1.0" encoding="utf-8"?>
<!-- Generator: Adobe Illustrator 16.0.3, SVG Export Plug-In . SVG Version: 6.00 Build 0)  -->
<!DOCTYPE svg PUBLIC "-//W3C//DTD SVG 1.1//EN" "http://www.w3.org/Graphics/SVG/1.1/DTD/svg11.dtd">
<svg version="1.1" id="Layer_1" xmlns="http://www.w3.org/2000/svg" xmlns:xlink="http://www.w3.org/1999/xlink" x="0px" y="0px"
	 width="64px" height="64px" viewBox="0 0 64 64" enable-background="new 0 0 64 64" xml:space="preserve">
<g id="base">
	<rect id="base_1_" fill="#F5F5F5" width="64" height="64"/>
	<rect id="padding" x="4" y="4" fill="#E0E0E0" width="56" height="56"/>
	<circle opacity="0.5" fill="#E73E11" enable-background="new    " cx="32" cy="32" r="32"/>
	<circle opacity="0.5" fill="#E73E11" enable-background="new    " cx="32" cy="32" r="28"/>
</g>
<g id="Icons">
	<path id="add" display="none" d="M60.004,36.01H36.029v23.975h-7.881V36.01H4.003v-7.883h23.978V3.982h7.88v23.976h23.978v8.071
		L60.004,36.01L60.004,36.01z"/>
	<path id="subtract" display="none" d="M4.05,36.018v-8.077h56v8.095L4.05,36.018L4.05,36.018z"/>
	<path id="timeout" display="none" d="M20.509,8.16L7.76,18.818l-3.552-4.181L16.958,3.98L20.509,8.16z M14.24,17.251
		c4.912-4.912,10.762-7.427,17.764-7.427c7.003,0,12.854,2.508,17.764,7.427c4.91,4.898,7.314,10.86,7.314,17.649
		c0,6.906-2.404,12.748-7.314,17.658c-4.91,4.9-10.764,7.422-17.764,7.422c-7.001,0-12.853-2.5-17.764-7.422
		C9.327,47.648,6.926,41.79,6.926,34.9C6.926,28.013,9.33,22.162,14.24,17.251z M18.211,48.702c3.762,3.866,8.36,5.748,13.793,5.748
		c5.434,0,10.03-1.882,13.793-5.748c3.762-3.866,5.643-8.464,5.643-13.896c0-5.438-1.895-10.042-5.643-13.793
		c-3.764-3.761-8.359-5.643-13.793-5.643c-5.434,0-10.032,1.894-13.793,5.643c-3.761,3.761-5.643,8.358-5.643,13.793
		C12.568,40.344,14.45,44.941,18.211,48.702z M33.467,21.012v14.628l11.076,6.584l-2.09,3.442L29.286,37.83V21.117L33.467,21.012
		L33.467,21.012z M59.802,14.637l-3.544,4.286L43.505,8.16l3.547-4.179L59.802,14.637z"/>
	<path id="menu" display="none" d="M6.321,27.05c1.451-1.45,3.048-2.177,4.935-2.177c1.885,0,3.482,0.727,4.933,2.177
		c1.451,1.45,2.176,3.058,2.176,4.934c0,1.888-0.871,3.484-2.321,4.935c-1.45,1.45-3.047,2.176-4.932,2.176
		c-1.887,0-3.482-0.726-4.933-2.176c-1.451-1.45-2.177-3.06-2.177-4.935C4.001,30.108,4.872,28.5,6.321,27.05z M26.927,27.05
		c1.451-1.45,3.047-2.177,4.932-2.177c1.887,0,3.483,0.727,4.933,2.177c1.452,1.45,2.177,3.058,2.177,4.934
		c0,1.888-0.725,3.484-2.177,4.935c-1.45,1.45-3.046,2.176-4.933,2.176c-1.885,0-3.481-0.726-4.932-2.176
		c-1.45-1.45-2.177-3.06-2.177-4.935C24.897,30.098,25.623,28.5,26.927,27.05z M47.969,27.05c1.45-1.45,3.051-2.177,4.936-2.177
		c1.888,0,3.477,0.727,4.927,2.177c1.444,1.45,2.176,3.058,2.176,4.934c0,1.888-0.729,3.484-2.176,4.935
		c-1.454,1.45-3.062,2.176-4.927,2.176c-1.891,0-3.479-0.726-4.936-2.176c-1.451-1.45-2.177-3.06-2.177-4.935
		C45.792,30.108,46.518,28.5,47.969,27.05z"/>
	<path id="help" display="none" d="M12.206,12.184c5.507-5.492,12.066-8.201,19.799-8.201c7.731,0,14.292,2.709,19.797,8.201
		c5.507,5.505,8.202,12.082,8.202,19.799c0,7.717-2.695,14.292-8.202,19.8c-5.505,5.49-12.065,8.199-19.797,8.199
		c-7.733,0-14.294-2.709-19.799-8.199c-5.507-5.508-8.2-12.082-8.2-19.8C4.006,24.265,6.815,17.689,12.206,12.184z M16.188,47.8
		c4.452,4.452,9.724,6.679,15.816,6.679s11.363-2.227,15.814-6.679c4.453-4.452,6.681-9.725,6.681-15.816
		c0-6.092-2.228-11.364-6.681-15.816c-4.451-4.452-9.723-6.678-15.814-6.678c-6.091,0-11.364,2.226-15.816,6.678
		S9.51,25.891,9.51,31.983C9.51,38.075,11.736,43.348,16.188,47.8z M24.155,18.509c2.226-2.224,4.804-3.279,7.849-3.279
		c3.043,0,5.739,1.045,7.85,3.279c2.229,2.228,3.28,4.805,3.28,7.851c0,2.344-1.405,4.803-4.22,7.263
		c-2.811,2.462-4.227,4.804-4.227,6.796H29.19c0-1.992,0.468-3.751,1.289-5.153c0.819-1.406,1.874-2.461,2.928-3.165
		c1.053-0.702,1.989-1.524,2.929-2.459c0.818-0.938,1.288-2.11,1.288-3.281c0-1.524-0.584-2.813-1.757-3.866
		c-1.174-1.056-2.46-1.64-3.982-1.64c-1.522,0-2.812,0.584-3.982,1.64c-1.171,1.045-1.758,2.341-1.758,3.866H20.64
		C20.874,23.314,21.928,20.62,24.155,18.509z M29.193,48.736v-5.622h5.505v5.622H29.193z"/>
	<path id="cancel" display="none" d="M59.998,9.704L37.699,32.001l22.299,22.301L54.301,60L32,37.703L9.703,60l-5.701-5.697
		l22.299-22.301L4.002,9.704L9.703,4L32,26.301L54.301,4L59.998,9.704z"/>
	<path id="down-arrow" display="none" d="M10.488,14.619L31.952,36.08l21.464-21.461l6.635,6.632L31.952,49.348L4.05,21.25
		L10.488,14.619z"/>
	<path id="up-arrow" display="none" d="M53.563,49.365L32.097,27.904L10.632,49.365L4,42.732L32.097,14.63L60,42.732L53.563,49.365z
		"/>
	<g id="double-left-arrow" display="none">
		<polygon display="inline" fill="#E73E11" points="37.699,11.151 31.053,4.693 3.907,32.033 31.246,59.184 37.699,52.727 
			16.814,32.033 		"/>
		<polygon display="inline" fill="#E73E11" points="60.104,12.098 53.648,6.212 27.827,32.033 53.836,58.23 60.104,51.777 
			39.979,32.033 		"/>
	</g>
	<g id="left-arrow" display="none">
		<path display="inline" fill="#E73E11" d="M48.9,11.053L28.014,31.934L48.9,52.818l-6.457,6.455L15.11,31.934L42.258,4.785
			L48.9,11.053z"/>
	</g>
	<g id="double-right-arrow" display="none">
		<polygon display="inline" points="26.328,10.985 32.951,4.738 60.005,31.793 32.757,59.229 26.328,52.605 47.141,31.793 		"/>
		<polygon display="inline" points="4.005,11.928 10.436,6.062 36.165,31.983 10.248,57.9 4.005,51.85 24.057,31.983 		"/>
	</g>
	<g id="right-arrow" display="none">
		<path display="inline" fill="#E73E11" d="M21.527,4.738L48.96,31.983L21.527,59.229l-6.477-6.287l20.953-20.958L15.05,11.028
			L21.527,4.738z"/>
	</g>
	<path id="default" display="none" d="M12.206,12.184c5.507-5.492,12.066-8.201,19.799-8.201c7.731,0,14.292,2.709,19.797,8.201
		c5.507,5.505,8.202,12.082,8.202,19.799c0,7.717-2.695,14.292-8.202,19.8c-5.505,5.49-12.065,8.199-19.797,8.199
		c-7.733,0-14.294-2.709-19.799-8.199c-5.507-5.508-8.2-12.082-8.2-19.8C4.006,24.265,6.815,17.689,12.206,12.184z M32.004,54.479
		c5.271,0,9.842-1.521,13.826-4.688L14.314,18.16c-3.162,3.974-4.686,8.552-4.686,13.824c0,6.092,2.225,11.364,6.679,15.816
		C20.64,52.252,25.912,54.479,32.004,54.479z M49.695,45.809c3.164-3.975,4.688-8.553,4.688-13.825
		c0-6.092-2.217-11.364-6.682-15.816c-4.452-4.452-9.725-6.678-15.814-6.678c-5.272,0-9.841,1.524-13.823,4.686L49.695,45.809z"/>
	<g id="checkbox-unselected" display="none">
		<path id="back" display="inline" d="M53.706,4.029c1.622,0,3.116,0.623,4.364,1.871c1.248,1.247,1.871,2.744,1.871,4.364v43.528
			c0,1.623-0.623,3.12-1.871,4.366c-1.248,1.247-2.742,1.871-4.364,1.871H10.303c-1.622,0-3.118-0.624-4.367-1.871
			c-1.247-1.246-1.871-2.743-1.871-4.366V10.264c0-1.62,0.624-3.117,1.871-4.364c1.247-1.249,2.743-1.871,4.367-1.871H53.706
			L53.706,4.029z"/>
		<rect id="fill_1_" x="10.303" y="10.264" display="inline" fill="#FFFFFF" width="43.527" height="43.528"/>
	</g>
	<g id="checkbox-tick">
		<path id="back_1_" d="M53.658,3.998c1.867,0,3.236,0.621,4.479,1.867c1.243,1.246,1.867,2.737,1.867,4.354v43.434
			c0,1.617-0.624,3.109-1.867,4.354c-1.242,1.246-2.736,1.866-4.479,1.866H10.352c-1.867,0.125-3.236-0.497-4.48-1.741
			c-1.244-1.243-1.867-2.737-1.867-4.356V10.346c0-1.617,0.623-3.11,1.867-4.354c1.244-1.246,2.737-1.867,4.48-1.867
			C10.352,3.998,53.658,3.998,53.658,3.998z"/>
		<polygon id="tick" fill="#FFFFFF" points="25.781,47.555 53.658,19.552 49.3,15.073 25.781,38.719 14.708,27.644 10.352,31.998 		
			"/>
	</g>
	<g id="checkbox-cross">
		<path id="back_3_" d="M53.658,3.998c1.867,0,3.236,0.621,4.479,1.867c1.243,1.246,1.867,2.737,1.867,4.354v43.434
			c0,1.617-0.624,3.109-1.867,4.354c-1.242,1.246-2.736,1.866-4.479,1.866H10.352c-1.867,0.125-3.236-0.497-4.48-1.741
			c-1.244-1.243-1.867-2.737-1.867-4.356V10.346c0-1.617,0.623-3.11,1.867-4.354c1.244-1.246,2.737-1.867,4.48-1.867
			C10.352,3.998,53.658,3.998,53.658,3.998z"/>
		<path id="cross" fill="#FFFFFF" d="M52,16.073L36.071,32.001L52,47.932l-4.069,4.07L32,36.074L16.073,52.002L12,47.932
			l15.929-15.93L12,16.073l4.073-4.075L32,27.929l15.931-15.931L52,16.073z"/>
	</g>
	<g id="checkbox-partly-selected" display="none">
		<path id="back_2_" display="inline" d="M53.706,4.029c1.622,0,3.116,0.623,4.364,1.871c1.248,1.247,1.871,2.744,1.871,4.364
			v43.528c0,1.623-0.623,3.12-1.871,4.366c-1.248,1.247-2.742,1.871-4.364,1.871H10.303c-1.622,0-3.118-0.624-4.367-1.871
			c-1.247-1.246-1.871-2.743-1.871-4.366V10.264c0-1.62,0.624-3.117,1.871-4.364c1.247-1.249,2.743-1.871,4.367-1.871H53.706
			L53.706,4.029z"/>
		<rect id="fill_2_" x="10.303" y="28.848" display="inline" fill="#FFFFFF" width="43.527" height="6.236"/>
	</g>
	<g id="site" display="none">
		<path display="inline" d="M60.005,38.206h-3.11v18.666h-6.224V38.206H38.227v18.666H7.115V38.206H4.004v-6.223l3.111-15.554
			h49.775L60,31.983L60.005,38.206L60.005,38.206z M56.895,7.096v6.221H7.115V7.096H56.895z M32.004,50.648V38.206H13.338v12.442
			H32.004z"/>
	</g>
	<path id="edit_1_" display="none" d="M4.059,48.494l34.373-34.372l11.731,11.726L15.792,59.939H4.057L4.059,48.494L4.059,48.494z
		 M58.971,16.64l-5.732,5.725L41.504,10.641l5.73-5.741c0.558-0.547,1.256-0.961,2.248-0.961c0.99,0,1.545,0.262,2.248,0.961
		l7.265,7.266c0.548,0.559,0.963,1.258,0.963,2.248C59.947,15.241,59.667,16.079,58.971,16.64z"/>
	<g id="Tick" display="none">
		<path display="inline" d="M21.737,44.518l33.731-33.869l4.534,4.536L21.735,53.316L4.003,35.584l4.268-4.533L21.737,44.518z"/>
	</g>
	<g id="Copy" display="none">
		<rect x="15.469" y="35.182" display="inline" fill="#231F20" width="22.748" height="3.478"/>
		<rect x="15.469" y="48.701" display="inline" fill="#231F20" width="22.748" height="3.472"/>
		<rect x="15.469" y="42.033" display="inline" fill="#231F20" width="22.748" height="3.38"/>
		<path display="inline" fill="#231F20" d="M41.415,4.029H23.599c-2.741,0-4.842,2.186-4.842,4.842v5.206h-5.755
			c-2.741,0-4.843,2.186-4.843,4.842v36.269c0,2.739,2.102,4.847,4.843,4.847h27.316c2.74,0,4.842-2.191,4.842-4.847v-5.209h5.755
			c2.741,0,4.842-2.188,4.842-4.84V18.28L41.415,4.029z M41.323,8.596l9.317,9.41h-6.218c-1.729,0-3.194-1.47-3.194-3.198
			L41.323,8.596L41.323,8.596z M41.777,55.098c0,0.729-0.639,1.469-1.459,1.469H12.911c-0.732,0-1.463-0.639-1.463-1.469V18.736
			c0-0.729,0.64-1.46,1.463-1.46h14.342v7.583c0,3.556,2.924,6.578,6.578,6.578h7.858L41.777,55.098L41.777,55.098z M30.634,24.948
			v-6.296l9.318,9.41h-6.214C32.188,27.964,30.634,26.594,30.634,24.948z M52.377,45.229c0,0.731-0.641,1.463-1.462,1.463h-5.847
			V28.328L30.817,13.896h-8.679V8.772c0-0.731,0.639-1.462,1.461-1.462h14.344v7.583c0,3.563,2.922,6.576,6.576,6.576h7.854
			L52.377,45.229L52.377,45.229z"/>
	</g>
	<path id="Search" display="none" d="M44.063,39.218l15.942,15.935l-4.834,4.834L39.234,44.043v-2.541L38.3,40.575
		c-3.759,3.349-8.305,4.944-13.53,4.944c-5.761,0-10.718-2.014-14.738-6.028c-4.019-4.019-6.029-8.848-6.029-14.742
		c0-5.76,2.01-10.717,6.029-14.736c4.02-4.019,8.975-6.028,14.738-6.028c5.762,0,10.716,2.009,14.738,6.028
		c4.02,4.02,6.027,8.976,6.027,14.736c0,5.226-1.609,9.646-4.956,13.542l0.938,0.941L44.063,39.218L44.063,39.218z M14.722,35.064
		c2.813,2.824,6.163,4.164,10.181,4.164c4.02,0,7.369-1.34,10.182-4.164c2.813-2.813,4.155-6.167,4.155-10.188
		s-1.342-7.368-4.155-10.194c-2.812-2.813-6.163-4.154-10.182-4.154s-7.368,1.341-10.181,4.154
		c-2.813,2.823-4.155,6.175-4.155,10.194C10.433,28.9,11.908,32.252,14.722,35.064z"/>
	<path id="Customers" display="none" d="M14.481,35.395c2.67-0.646,5.02-0.959,7.264-0.959c2.244,0,4.702,0.318,7.267,0.959
		c2.67,0.646,5.023,1.711,7.265,3.092c2.244,1.399,3.313,3.104,3.313,4.93v6.297H4.008v-6.3c0-1.813,1.068-3.418,3.313-4.929
		C9.458,37.104,12.023,36.037,14.481,35.395z M27.195,27.168c-1.495,1.495-3.206,2.243-5.343,2.243c-2.03,0-3.847-0.735-5.343-2.243
		c-1.495-1.496-2.244-3.313-2.244-5.342c0-2.032,0.748-3.847,2.244-5.345c1.497-1.495,3.313-2.244,5.343-2.244
		c2.029,0,3.847,0.736,5.343,2.244c1.497,1.508,2.244,3.313,2.244,5.345C29.333,23.855,28.692,25.565,27.195,27.168z M47.605,27.168
		c-1.488,1.495-3.314,2.243-5.351,2.243c-2.021,0-3.847-0.735-5.342-2.243c-1.483-1.496-2.244-3.313-2.244-5.342
		c0-2.032,0.747-3.847,2.244-5.345c1.495-1.495,3.317-2.244,5.342-2.244c2.03,0,3.854,0.736,5.351,2.244
		c1.494,1.498,2.252,3.313,2.252,5.345C49.848,23.855,49.1,25.565,47.605,27.168z M42.154,34.542c2.246,0,4.699,0.319,7.268,0.953
		c2.671,0.649,5.021,1.72,7.264,3.098c2.254,1.392,3.323,3.091,3.323,4.917v6.305H44.934v-6.304c0-3.526-1.709-6.519-5.021-8.87
		C40.338,34.542,41.193,34.542,42.154,34.542z"/>
	<path id="View" display="none" d="M14.97,18.142c5.11-3.511,10.754-5.215,17.034-5.215c6.281,0,11.924,1.712,17.035,5.215
		c5.109,3.515,8.729,8.092,10.967,13.842c-2.238,5.75-5.855,10.327-10.967,13.841c-5.111,3.514-10.754,5.217-17.035,5.217
		c-6.28,0-11.924-1.713-17.034-5.217C9.86,42.32,6.24,37.734,4.005,31.984C6.238,26.234,9.86,21.656,14.97,18.142z M22.955,41.032
		c2.555,2.557,5.538,3.728,9.049,3.728c3.512,0,6.495-1.277,9.049-3.728c2.555-2.554,3.727-5.535,3.727-9.049
		c0-3.513-1.272-6.495-3.727-9.051c-2.555-2.447-5.537-3.725-9.049-3.725c-3.514,0-6.494,1.278-9.049,3.725
		c-2.447,2.556-3.727,5.538-3.727,9.051C19.229,35.497,20.506,38.479,22.955,41.032z M26.68,26.661
		c1.489-1.492,3.3-2.237,5.324-2.237c2.025,0,3.833,0.733,5.324,2.237c1.488,1.49,2.236,3.299,2.236,5.322s-0.746,3.832-2.236,5.324
		c-1.491,1.489-3.303,2.235-5.324,2.235c-2.022,0-3.833-0.733-5.324-2.235c-1.491-1.502-2.236-3.301-2.236-5.324
		C24.338,29.96,25.083,28.151,26.68,26.661z"/>
	<path id="Refresh" display="none" d="M32.004,47.208v-7.666l10.115,10.114L32.004,59.982v-7.664
		c-5.536,0-10.327-2.021-14.373-6.063c-4.046-4.059-6.069-8.85-6.069-14.373c0-3.938,1.064-7.568,3.194-10.858l3.727,3.725
		c-1.171,2.13-1.81,4.577-1.81,7.133c0,4.26,1.488,7.773,4.471,10.751C24.234,45.718,27.746,47.208,32.004,47.208z M32.004,11.542
		c5.536,0,10.327,2.023,14.372,6.069c4.046,4.046,6.069,8.836,6.069,14.373c0,3.938-1.066,7.559-3.193,10.859l-3.727-3.726
		c1.17-2.131,1.811-4.578,1.811-7.134c0-4.26-1.492-7.771-4.473-10.752c-2.98-2.994-6.602-4.472-10.752-4.472v7.666L21.996,14.31
		L32.003,3.983L32.004,11.542L32.004,11.542z"/>
	<path id="Phone" display="none" d="M15.075,28.208c4.688,8.983,11.591,15.888,20.577,20.592l6.896-6.917
		c0.913-0.896,2.099-1.163,3.263-0.783c3.518,1.174,7.164,1.694,11.066,1.694c0.909,0,1.563,0.259,2.213,0.911
		s0.911,1.301,0.911,2.213v10.93c0,0.911-0.263,1.563-0.911,2.215c-0.521,0.521-1.304,0.912-2.213,0.912
		c-14.587,0-27.09-5.211-37.38-15.5C9.083,34.057,4.005,21.685,4.005,7.114c0-0.912,0.262-1.563,0.912-2.213
		C5.437,4.378,6.219,3.99,7.13,3.99h10.94c0.912,0,1.563,0.259,2.216,0.911c0.52,0.51,0.911,1.301,0.911,2.213
		c0,3.907,0.52,7.554,1.691,11.069c0.391,1.304,0.132,2.346-0.782,3.257L15.075,28.208z"/>
	<path id="User" display="none" d="M13.631,42.919c6.417-2.623,12.54-3.791,18.372-3.791s11.956,1.302,18.371,3.791
		c6.417,2.624,9.635,5.978,9.635,10.063v6.998h-56v-6.998C4.007,48.749,7.215,45.396,13.631,42.919z M41.771,27.902
		c-2.627,2.758-5.98,4.082-9.771,4.082s-7.143-1.313-9.769-4.082c-2.769-2.772-4.081-5.99-4.081-9.769
		c0-3.793,1.312-7.147,4.081-9.915c2.771-2.773,5.979-4.23,9.769-4.23c3.789,0,7.145,1.458,9.771,4.23
		c2.768,2.758,4.082,6.122,4.082,9.915C45.854,21.921,44.544,25.129,41.771,27.902z"/>
	<path id="Transfer" display="none" d="M16.377,28.857v9.377h21.876v6.121H16.377v9.375L4.004,41.361L16.377,28.857z M60.005,22.607
		L47.632,35.109v-9.376H25.754v-6.12h21.878v-9.379L60.005,22.607z"/>
	<path id="Back" display="none" d="M60.004,28.482v6.856H17.422l19.395,19.54l-4.812,5.104l-28-28l28-28l4.957,4.958L17.419,28.473
		L60.004,28.482L60.004,28.482z"/>
	<path id="Delivery" display="none" d="M52.368,21.908l7.637,10.075V44.71h-5.093c0,2.015-0.741,3.817-2.227,5.304
		c-1.484,1.484-3.289,2.229-5.31,2.229c-2.019,0-3.813-0.729-5.302-2.229c-1.486-1.486-2.229-3.289-2.229-5.304H24.26
		c0,2.015-0.742,3.817-2.228,5.304c-1.483,1.484-3.287,2.229-5.304,2.229c-2.016,0-3.818-0.729-5.303-2.229
		c-1.486-1.498-2.228-3.289-2.228-5.304H4.005V16.923c0-1.378,0.531-2.538,1.591-3.598c1.06-1.06,2.228-1.59,3.605-1.59h35.424
		v10.183L52.368,21.908L52.368,21.908z M14.081,47.468c0.741,0.742,1.591,1.175,2.758,1.175c1.06,0,2.014-0.425,2.757-1.175
		c0.744-0.729,1.06-1.591,1.06-2.651c0-1.063-0.317-1.903-1.06-2.646C18.855,41.438,18.005,41,16.839,41
		c-1.06,0-2.015,0.424-2.758,1.167c-0.742,0.743-1.06,1.706-1.06,2.649C13.021,45.877,13.337,46.618,14.081,47.468z M44.521,47.468
		c0.74,0.742,1.59,1.175,2.756,1.175c1.063,0,2.017-0.425,2.768-1.175c0.743-0.731,1.059-1.591,1.059-2.651
		c0-1.063-0.313-1.903-1.061-2.646C49.307,41.438,48.452,41,47.277,41c-1.063,0-2.008,0.424-2.762,1.167
		c-0.738,0.743-1.063,1.706-1.063,2.649C43.458,45.877,43.671,46.618,44.521,47.468z M50.884,25.726h-6.259v6.257h11.252
		L50.884,25.726z"/>
	<path id="Recycle" display="none" d="M24.214,32.604c0.311,1.563-1.349,2.707-2.595,1.883l-4.463-2.8l-5.607,8.925
		c-1.452,2.283,0.208,5.397,3.012,5.397h5.71c0.728,0,1.349,0.627,1.349,1.351v4.359c0,0.727-0.623,1.35-1.349,1.35H14.56
		c-8.203,0-13.292-9.137-8.93-16.092l5.606-8.93l-4.464-2.802c-1.35-0.831-0.935-2.806,0.52-3.219l12.044-2.803
		c0.935-0.207,1.869,0.407,2.077,1.351L24.214,32.604L24.214,32.604z M35.012,12.565l4.563,7.267l-4.563,2.803
		c-1.349,0.832-0.934,2.804,0.518,3.219l12.052,2.802c0.938,0.209,1.862-0.407,2.071-1.348l2.808-12.044
		c0.313-1.558-1.354-2.708-2.601-1.881l-4.463,2.802L40.83,8.917c-4.153-6.541-13.706-6.541-17.858,0L21,12.032
		c-0.415,0.629-0.208,1.455,0.415,1.764l3.737,2.286c0.623,0.407,1.454,0.198,1.766-0.416l1.972-3.114
		C30.444,10.385,33.663,10.488,35.012,12.565L35.012,12.565z M58.372,36.963l-3.011-4.774c-0.413-0.631-1.245-0.831-1.764-0.417
		l-3.738,2.285c-0.623,0.416-0.832,1.245-0.416,1.771l3.011,4.881c1.455,2.271-0.207,5.388-3.011,5.388H38.957v-5.298
		c0-1.562-1.87-2.388-3.01-1.243l-8.722,8.725c-0.728,0.723-0.728,1.762,0,2.479l8.722,8.726c1.143,1.143,3.01,0.313,3.01-1.244
		v-5.297h10.486C57.751,53.057,62.838,43.919,58.372,36.963z"/>
	<path id="Box" display="none" d="M41.238,32.084c-1.452,0-2.905-0.83-3.631-2.076l-5.606-9.342l-5.604,9.342
		c-0.726,1.246-2.18,2.076-3.633,2.076c-0.415,0-0.832-0.104-1.143-0.196l-12.04-3.437V44.02c0,1.246,0.832,2.399,2.076,2.707
		l18.892,4.775c0.934,0.206,1.867,0.206,2.699,0l18.994-4.775c1.246-0.311,2.076-1.451,2.076-2.707V28.451L42.38,31.888
		C42.068,32.084,41.654,32.084,41.238,32.084z M59.921,22.223l-4.461-9.018c-0.323-0.518-0.844-0.843-1.455-0.843L32.001,15.27
		l7.992,13.285c0.313,0.52,1.038,0.83,1.661,0.623L58.988,24.3C59.818,23.987,60.232,23.054,59.921,22.223L59.921,22.223z
		 M8.648,13.297l-4.462,9.03c-0.416,0.829,0,1.764,0.934,1.963l17.333,4.994c0.623,0.195,1.246-0.113,1.662-0.63l7.888-13.382
		l-21.9-2.802C9.479,12.362,8.959,12.675,8.648,13.297z"/>
	<path id="Bar_Chart" display="none" d="M4.123,59.982v-28h14v28H4.123z M25.122,59.982v-56h13.999v55.853H25.122V59.982z
		 M45.977,21.483h14v38.354h-14V21.483z"/>
	<path id="List" display="none" d="M5.351,10.62C6.235,9.75,7.247,9.356,8.51,9.356c1.263,0,2.276,0.393,3.159,1.263
		c0.884,0.884,1.392,1.896,1.392,3.297c0,1.266-0.504,2.391-1.392,3.286c-0.883,0.887-2.024,1.264-3.159,1.264
		c-1.264,0-2.275-0.377-3.159-1.264c-0.886-0.872-1.392-1.896-1.392-3.286C4.085,12.516,4.465,11.504,5.351,10.62z M5.351,28.696
		c0.884-0.885,1.896-1.263,3.159-1.263c1.263,0,2.276,0.378,3.159,1.263c1.013,0.87,1.392,2.021,1.392,3.286
		c0,1.263-0.504,2.403-1.392,3.288c-0.886,0.891-2.024,1.268-3.159,1.268c-1.264,0-2.275-0.378-3.159-1.268
		c-0.886-0.871-1.264-2.021-1.264-3.288C4.085,30.717,4.465,29.58,5.351,28.696z M5.351,46.898c0.884-0.893,1.896-1.396,3.159-1.396
		c1.263,0,2.276,0.494,3.159,1.396c0.884,0.885,1.392,2.033,1.392,3.16c0,1.264-0.504,2.271-1.392,3.153
		c-0.886,0.89-2.024,1.399-3.159,1.399c-1.264,0-2.275-0.51-3.159-1.399c-0.886-0.885-1.392-1.896-1.392-3.153
		C4.085,48.92,4.465,47.783,5.351,46.898z M17.611,10.871h42.348v5.942H17.611V10.871z M17.611,35.018V29.08h42.348v5.938H17.611z
		 M17.611,53.091v-5.938h42.348v5.938H17.611z"/>
	<path id="email" display="none" d="M54.499,9.477c1.521,0,2.812,0.586,3.866,1.757c1.055,1.171,1.64,2.47,1.64,3.984v33.626
		c0,1.521-0.585,2.803-1.64,3.973c-1.057,1.177-2.346,1.765-3.866,1.765H9.509c-1.522,0-2.812-0.588-3.866-1.765
		c-1.054-1.172-1.638-2.461-1.638-3.973V15.217c0-1.522,0.586-2.813,1.638-3.984c1.053-1.17,2.344-1.757,3.866-1.757L54.499,9.477
		L54.499,9.477z M54.499,20.843v-5.625L32.004,29.159L9.509,15.1v5.639l22.495,14.059L54.499,20.843z"/>
	<path id="tag" display="none" d="M58.419,30.887c1.058,1.058,1.526,2.349,1.526,3.995c0,1.525-0.471,2.935-1.526,3.983
		L38.691,58.473C37.634,59.531,36.343,60,34.698,60c-1.644,0-2.934-0.459-3.991-1.527L5.58,33.23
		c-1.057-1.062-1.526-2.354-1.526-3.999V9.511c0-1.527,0.588-2.81,1.645-3.875C6.755,4.578,8.047,4,9.573,4h19.728
		c1.525,0,2.935,0.46,3.991,1.529L58.419,30.887z M10.744,16.68c0.822,0.809,1.762,1.292,2.936,1.292
		c1.174,0,2.114-0.47,2.935-1.292c0.822-0.823,1.293-1.762,1.293-2.935c0-1.176-0.469-2.129-1.293-2.938
		c-0.823-0.821-1.878-1.301-2.935-1.301c-1.174,0-2.113,0.47-2.936,1.301c-0.822,0.809-1.292,1.88-1.292,2.938
		C9.452,14.918,9.922,15.857,10.744,16.68z"/>
	<path id="card" display="none" d="M54.499,9.503c1.521,0,2.929,0.587,3.983,1.642c1.045,1.045,1.521,2.459,1.521,3.973v33.626
		c0,1.521-0.469,2.928-1.521,3.982c-1.061,1.047-2.346,1.633-3.983,1.633H9.509c-1.522,0-2.928-0.586-3.983-1.633
		c-1.054-1.061-1.521-2.475-1.521-3.982V15.236c0-1.532,0.468-2.928,1.521-3.983c1.055-1.045,2.344-1.632,3.983-1.632h44.99V9.503z
		 M54.499,20.869v-5.625H9.509v5.625H54.499z M54.499,48.753V31.998H9.509v16.755H54.499z"/>
	<path id="location" display="none" d="M18.181,9.722c3.75-3.748,8.435-5.739,13.824-5.739c5.39,0,10.077,1.885,13.825,5.739
		c3.749,3.75,5.738,8.438,5.738,13.826c0,2.695-0.703,5.858-1.989,9.373c-1.406,3.515-3.05,6.794-4.922,9.84
		c-1.875,3.048-3.864,5.979-5.741,8.554c-1.872,2.694-3.514,4.81-4.803,6.328l-2.108,2.342c-0.468-0.586-1.171-1.401-2.108-2.471
		c-0.821-1.046-2.46-3.046-4.686-6.091s-4.218-5.978-5.975-8.788c-1.758-2.802-3.281-6.076-4.686-9.592
		c-1.406-3.643-2.109-6.811-2.109-9.5C12.438,18.16,14.314,13.59,18.181,9.722z M27.083,28.469c1.406,1.406,3.047,1.992,4.921,1.992
		c1.875,0,3.516-0.712,4.921-1.992c1.406-1.407,1.989-3.046,1.989-4.921c0-1.874-0.711-3.515-1.989-4.921
		c-1.405-1.391-3.046-1.977-4.921-1.977c-1.874,0-3.515,0.704-4.921,1.977c-1.405,1.406-1.989,3.056-1.989,4.921
		C25.094,25.539,25.678,27.18,27.083,28.469z"/>
	<path id="key" display="none" d="M33.698,26.883h26.353v10.2h-5.103V47.18h-10.2V37.083h-11.05
		c-1.062,2.978-2.869,5.428-5.527,7.333c-2.656,1.912-5.63,2.764-8.925,2.764c-4.25,0-7.756-1.479-10.733-4.465
		C5.538,39.741,4.05,36.232,4.05,31.983c0-4.251,1.488-7.756,4.462-10.732c2.975-2.988,6.589-4.463,10.733-4.463
		c3.295,0,6.27,0.948,8.925,2.763C30.828,21.356,32.634,23.8,33.698,26.883z M15.74,35.598c0.956,1.063,2.125,1.594,3.506,1.594
		c1.38,0,2.549-0.527,3.611-1.594c1.062-1.063,1.594-2.24,1.594-3.614c0-1.374-0.532-2.551-1.594-3.613s-2.231-1.594-3.611-1.594
		c-1.381,0-2.55,0.532-3.506,1.594c-0.957,1.062-1.489,2.239-1.489,3.613C14.25,33.366,14.783,34.534,15.74,35.598z"/>
	<path id="mobile" display="none" d="M44.73,4.196c1.381,0,2.547,0.53,3.5,1.485c0.955,0.946,1.479,2.122,1.479,3.501v45.604
		c0,1.379-0.523,2.546-1.479,3.606c-0.953,1.061-2.119,1.59-3.5,1.59H19.278c-1.378,0-2.545-0.529-3.5-1.59
		c-0.955-1.063-1.486-2.235-1.486-3.606V9.182c0-1.38,0.531-2.546,1.486-3.608c0.955-1.06,2.122-1.591,3.5-1.591L44.73,4.196z
		 M45.791,55.848V8.12H18.218v47.728H45.791z"/>
	<g id="Customers_1_" display="none">
		<path display="inline" d="M39.623,31.983c5.577,0,10.189-4.612,10.189-10.19c0-5.58-4.612-10.194-10.189-10.194
			c-1.184,0-2.255,0.216-3.328,0.645c2.146,2.574,3.434,6.017,3.434,9.549s-1.396,6.972-3.434,9.548
			C37.368,31.768,38.439,31.983,39.623,31.983z"/>
		<circle display="inline" cx="24.387" cy="21.791" r="10.192"/>
		<path display="inline" d="M43.912,34.88c3.541,2.36,5.9,5.578,5.9,9.87v7.617H60V44.75C60.004,39.172,50.887,35.845,43.912,34.88z
			"/>
		<path display="inline" d="M24.387,34.561c-6.759,0-20.383,3.418-20.383,10.189v7.617h40.768V44.75
			C44.771,37.991,31.146,34.561,24.387,34.561z"/>
	</g>
	<path id="tasks" display="none" d="M53.795,10.192v43.597H10.214V10.192H53.795 M57.204,3.984h-50.4
		c-1.582,0-2.799,1.215-2.799,2.798v50.401c0,1.217,1.217,2.801,2.799,2.801h50.4c1.217,0,2.801-1.584,2.801-2.801v-50.4
		C60.005,5.199,58.421,3.984,57.204,3.984z M28.838,16.4h18.627v6.208H28.838V16.4z M28.838,28.818h18.627v6.208H28.838V28.818z
		 M28.838,41.355h18.627v6.209H28.838V41.355z M16.421,16.4h6.208v6.208h-6.208V16.4z M16.421,28.818h6.208v6.208h-6.208V28.818z
		 M16.421,41.355h6.208v6.209h-6.208V41.355z"/>
	<path id="graph" display="none" d="M8.222,50.13l-4.218-4.218l21.09-20.971l11.126,11.247L56.02,13.929l3.983,3.983l-23.78,26.711
		L25.094,33.377L8.222,50.13z"/>
	<path id="binoculars" display="none" d="M49.501,9.25c0-0.934-0.817-1.75-1.751-1.75h-6.999C39.816,7.5,39,8.316,39,9.25v5.25
		h10.501V9.25z M11,21.5c-0.234,10.266-6.65,12.482-7,26.717V53c0,1.982,1.517,3.5,3.5,3.5h10.501c1.983,0,3.499-1.518,3.499-3.5
		V35.499H25V18H14.5C12.516,18,11,19.516,11,21.5z M53,21.5c0-1.984-1.518-3.5-3.499-3.5H39v17.499h3.501V53
		c0,1.982,1.519,3.5,3.499,3.5h10.501C58.482,56.5,60,54.982,60,53v-4.783C59.65,33.982,53.232,31.766,53,21.5z M23.25,7.5h-7
		c-0.934,0-1.75,0.816-1.75,1.75v5.25H25V9.25C25,8.316,24.184,7.5,23.25,7.5z M28.5,35.499h7.001V18H28.5V35.499z"/>
	<path id="stock" display="none" d="M57.416,31.338l-10.609-4.002V15.435c0-1.6-1.002-3.101-2.604-3.7L33.396,7.733
		c-0.896-0.298-1.896-0.298-2.792,0l-10.901,4.109c-1.5,0.6-2.601,1.999-2.601,3.688v11.901L6.5,31.433C5,31.83,4,33.33,4,35.033
		v12.001c0,1.501,0.801,2.899,2.201,3.5l10.901,5.501c1.1,0.607,2.4,0.607,3.501,0l11.401-5.689l11.395,5.689
		c1.108,0.607,2.398,0.607,3.5,0L57.8,50.534c1.302-0.688,2.2-1.999,2.2-3.5V35.033C60.016,33.336,59.018,31.836,57.416,31.338z
		 M43.215,27.437l-9.304,3.499v-7.501l9.304-3.998V27.437z M20.813,15.334l11.201-4.199l11.202,4.199v0.101l-11.202,4.501
		L20.813,15.334C20.813,15.435,20.813,15.334,20.813,15.334z M30.013,47.139l-9.301,4.604V43.04l9.301-4.103V47.139z M30.013,34.938
		l-11.203,4.5l-11.101-4.5v-0.102l11.2-4.199L30.013,34.938L30.013,34.938z M56.314,47.139l-9.299,4.701v-8.701l9.299-4.201V47.139z
		 M56.314,34.938l-11.197,4.5l-11.104-4.5v-0.102l11.195-4.199L56.314,34.938L56.314,34.938z"/>
	<g id="merchandise" display="none">
		<path display="inline" d="M8.26,50.777h8.513c2.352,0,4.255-1.903,4.255-4.146V26.698c0-3.471-2.24-6.382-5.265-7.616v-8.175
			c0.561,0,1.008-0.448,1.008-1.008V7.885c0-0.563-0.447-1.009-1.008-1.009H9.379c-0.561,0-1.008,0.446-1.008,1.009v2.014
			c0,0.56,0.447,1.008,1.008,1.008v8.175c-3.135,1.234-5.375,4.145-5.375,7.616v19.937C4.006,48.874,5.909,50.777,8.26,50.777z
			 M7.589,25.915h9.631v20.28H7.589V25.915z"/>
		<path display="inline" d="M27.637,50.777h8.511c2.353,0,4.256-1.903,4.256-4.146V26.698c0-3.471-2.241-6.382-5.264-7.616v-8.175
			c0.559,0,1.008-0.448,1.008-1.008V7.885c0-0.563-0.449-1.009-1.008-1.009h-6.5c-0.561,0-1.007,0.446-1.007,1.009v2.014
			c0,0.56,0.447,1.008,1.007,1.008v8.175c-3.135,1.234-5.265,4.145-5.265,7.616v19.937C23.38,48.874,25.285,50.777,27.637,50.777z
			 M26.965,25.915h9.633v20.28h-9.633V25.915z"/>
		<path display="inline" d="M47.012,50.777h8.514c2.354,0,4.261-1.903,4.261-4.146V26.698c0-3.471-2.241-6.382-5.271-7.616v-8.175
			c0.563,0,1.01-0.448,1.01-1.008V7.885c0-0.563-0.441-1.009-1.01-1.009h-6.383c-0.563,0-1.01,0.446-1.01,1.009v2.014
			c0,0.56,0.447,1.008,1.01,1.008v8.175c-3.14,1.234-5.266,4.145-5.266,7.616v19.937C42.755,48.874,44.661,50.777,47.012,50.777z
			 M46.341,25.915h9.634v20.28h-9.634V25.915z"/>
		<rect x="4.006" y="53.018" display="inline" width="55.998" height="4.258"/>
	</g>
	<path id="menu-vert" display="none" d="M36.938,16.021c-1.449,1.447-3.06,2.177-4.933,2.177s-3.483-0.729-4.934-2.177
		c-1.45-1.453-2.176-3.049-2.176-4.938c0-1.886,0.726-3.472,2.176-4.923c1.451-1.453,3.048-2.177,4.934-2.177
		c1.888,0,3.483,0.724,4.933,2.177c1.453,1.451,2.183,3.047,2.183,4.923C38.971,12.971,38.247,14.712,36.938,16.021z M27.071,27.049
		c1.451-1.451,3.048-2.177,4.934-2.177c1.888,0,3.483,0.727,4.933,2.177c1.453,1.45,2.183,3.059,2.183,4.935
		c0,1.888-0.729,3.484-2.183,4.935c-1.449,1.451-3.06,2.177-4.933,2.177s-3.483-0.726-4.934-2.177
		c-1.45-1.45-2.176-3.06-2.176-4.935C25.039,30.098,25.766,28.499,27.071,27.049z M27.071,47.949
		c1.451-1.454,3.048-2.178,4.934-2.178c1.888,0,3.483,0.724,4.933,2.178c1.453,1.449,2.183,3.047,2.183,4.935
		c0,1.886-0.729,3.472-2.183,4.923c-1.449,1.449-3.06,2.178-4.933,2.178s-3.483-0.729-4.934-2.178
		c-1.45-1.453-2.176-3.05-2.176-4.923C25.039,50.996,25.766,49.398,27.071,47.949z"/>
	<path id="logout" display="none" d="M53.583,4.16c1.683,0,3.103,0.645,4.397,1.939c1.295,1.291,1.938,2.715,1.938,4.395v43.197
		c0,1.684-0.645,3.104-1.938,4.396c-1.295,1.292-2.729,1.938-4.397,1.938H10.386c-1.68,0-3.232-0.646-4.396-1.938
		c-1.163-1.292-1.809-2.728-1.809-4.396V41.407h6.208v12.284h43.198V10.364h-43.2v12.288H4.178V10.364
		c0-1.68,0.648-3.094,1.809-4.386c1.166-1.304,2.719-1.949,4.398-1.949h43.197L53.583,4.16L53.583,4.16z M26.037,43.087l8.02-8.147
		H4.178v-6.081h29.876l-8.021-8.147l4.396-4.387l15.52,15.52L30.43,47.365L26.037,43.087z"/>
	<path id="info" display="none" d="M12.206,12.184c5.507-5.492,12.066-8.201,19.799-8.201c7.731,0,14.292,2.709,19.797,8.201
		c5.507,5.505,8.202,12.082,8.202,19.799c0,7.717-2.695,14.292-8.202,19.8c-5.505,5.49-12.065,8.199-19.797,8.199
		c-7.733,0-14.294-2.709-19.799-8.199c-5.507-5.508-8.2-12.082-8.2-19.8C4.006,24.265,6.815,17.689,12.206,12.184z M34.816,23.548
		v-5.623h-5.507v5.623H34.816z M34.816,46.042V29.17h-5.507v16.872H34.816z"/>
	<g id="omnico" display="none">
		<path display="inline" d="M46.574,41.98c-0.352,0.813-1.167,1.164-1.633,1.979c-6.76,6.759-17.48,6.759-24.111,0
			c-6.759-6.76-6.759-17.482,0-24.124c6.758-6.76,17.48-6.76,24.111,0c0.356,0.363,1.633,1.98,1.633,1.98
			c3.145,3.624,8.275,4.788,12.701,3.147c0-1.982-0.354-3.613-1.164-5.127c-0.354-0.802-0.815-1.624-1.166-1.968
			C49.02,4.34,32.006,0.033,18.487,7.963c-13.52,7.926-17.832,24.932-9.906,38.46c7.576,12.693,23.425,17.017,36.478,10.708
			c0.815-0.351,1.166-0.803,1.98-1.154c5.129-2.795,9.092-7.119,11.536-13.05c0.352-0.815,0.352-1.632,0.804-2.332
			C55.314,38.018,50.188,38.833,46.574,41.98z"/>
		<ellipse display="inline" cx="32.587" cy="31.958" rx="11.888" ry="11.888"/>
	</g>
	<path id="money" display="none" d="M31.998,22.388c-4.587,0-8.344,4.284-8.344,9.595s3.754,9.594,8.344,9.594
		c4.588,0,8.344-4.284,8.344-9.594C40.342,26.674,36.586,22.388,31.998,22.388z M35.542,36.781c0,0.417-0.312,0.729-0.728,0.729
		h-5.632c-0.417,0-0.729-0.312-0.729-0.729v-1.356c0-0.409,0.313-0.729,0.729-0.729h1.357v-4.688l0,0
		c-0.313,0.208-0.731,0.114-0.938-0.196l0,0l-0.729-1.155c-0.21-0.313-0.104-0.729,0.209-0.931l0,0l1.355-0.845
		c0.312-0.197,0.729-0.314,1.147-0.314h1.147c0.416,0,0.729,0.314,0.729,0.73V34.8h1.355c0.416,0,0.729,0.313,0.729,0.73v1.247
		L35.542,36.781L35.542,36.781z M57.132,15.61H6.865c-1.564,0-2.815,1.25-2.815,2.72v27.313c0,1.459,1.251,2.719,2.815,2.719h50.369
		c1.563,0,2.813-1.252,2.813-2.719V18.325C59.947,16.757,58.695,15.61,57.132,15.61z M55.773,38.866
		c-3.127,0-5.631,2.409-5.631,5.423H13.852c0-3.018-2.502-5.423-5.631-5.423V25.113c3.129,0,5.631-2.412,5.631-5.423h36.291
		c0,3.017,2.496,5.423,5.625,5.423L55.773,38.866L55.773,38.866z"/>
	<path id="completed" display="none" d="M54.404,6.784h-44.8c-3.033,0-5.6,2.552-5.6,5.6v39.199c0,3.043,2.566,5.601,5.6,5.601h44.8
		c3.033,0,5.6-2.553,5.6-5.601V12.384C60.004,9.35,57.438,6.784,54.404,6.784z M26.405,45.984h-14V40.38h14V45.984z M26.405,34.784
		h-14v-5.602h14V34.784z M26.405,23.583h-14v-5.6h14V23.583z M39.938,40.384l-7.933-7.934l3.966-3.967l3.956,3.967l8.88-8.867
		l3.957,3.967L39.938,40.384z"/>
	<path id="cancelled" display="none" d="M12.206,12.184c5.507-5.492,12.066-8.201,19.799-8.201c7.731,0,14.292,2.709,19.797,8.201
		c5.507,5.505,8.202,12.082,8.202,19.799c0,7.717-2.695,14.292-8.202,19.8c-5.505,5.49-12.065,8.199-19.797,8.199
		c-7.733,0-14.294-2.709-19.799-8.199c-5.507-5.508-8.2-12.082-8.2-19.8C4.006,24.265,6.815,17.689,12.206,12.184z M46.063,42.059
		L35.986,31.983l10.076-10.075l-3.981-3.983L32.004,28L21.928,17.925l-3.982,3.983l10.076,10.075L17.946,42.059l3.982,3.983
		l10.077-10.075l10.077,10.075L46.063,42.059z"/>
	<g id="save" display="none">
		<path display="inline" d="M35.633,18.942h5.956c0.343,0,0.687-0.343,0.687-0.686V6.691c0-0.356-0.344-0.696-0.687-0.696h-5.956
			c-0.343,0-0.688,0.345-0.688,0.696v11.565C34.948,18.599,35.29,18.942,35.633,18.942z"/>
		<path display="inline" d="M56.471,11.271l-6.992-6.995c-0.217-0.228-0.567-0.341-0.918-0.341h-2.063
			c-0.691,0-1.266,0.571-1.266,1.258v15.343H18.917V5.192c0-0.687-0.573-1.258-1.26-1.258H8.612c-0.688,0-1.261,0.229-1.261,1.258
			V57.52c0,1.849,0.573,2.414,1.261,2.414h47.06c0.688,0,1.26-0.565,1.26-2.414V12.177C56.816,11.616,56.701,11.5,56.471,11.271z
			 M51.664,53.637c0,0.688-0.574,1.26-1.262,1.26H13.65c-0.688,0-1.261-0.566-1.261-1.26V27.645c0-0.696,0.573-1.27,1.261-1.27
			h36.641c0.689,0,1.262,0.574,1.262,1.27v25.992H51.664z"/>
		<rect x="16.512" y="30.394" display="inline" fill="#231F20" width="30.915" height="4.236"/>
		<rect x="16.512" y="46.768" display="inline" fill="#231F20" width="30.915" height="4.228"/>
		<rect x="16.512" y="38.639" display="inline" fill="#231F20" width="30.915" height="4.131"/>
	</g>
	<path id="reset" display="none" d="M32.004,11.542c5.664,0,10.448,2.209,14.505,6.16c3.952,3.95,5.99,8.754,5.99,14.304
		c0,5.658-2.026,10.464-6.086,14.521c-4.06,3.947-8.858,5.986-14.415,5.986c-5.55,0-10.354-2.024-14.414-5.986
		c-4.057-3.942-6.085-8.863-6.085-14.521h5.124c0,4.271,1.494,7.797,4.484,10.781c2.989,3.004,6.619,4.605,10.889,4.605
		c4.27,0,7.802-1.494,10.79-4.484c2.991-2.987,4.481-6.617,4.481-10.789c0-4.273-1.49-7.797-4.481-10.787
		c-2.987-2.988-6.507-4.574-10.676-4.574v7.666L21.996,14.31L32.003,3.983L32.004,11.542L32.004,11.542z"/>
	<path id="next" display="none" d="M32.004,3.984l27.707,28l-27.707,28l-4.812-4.959l19.395-19.53H4.298V28.64h42.291L27.195,8.952
		L32.004,3.984z"/>
	<path id="asterisk" display="none" d="M51.133,9.557l-14.97,19.921v0.302l23.842-3.073v10.814l-23.842-2.776l0,0l15.241,19.119
		l-9.979,5.827l-9.422-22.17h-0.275L21.47,59.691l-9.149-5.541L27.29,34.745v-0.278L4.005,37.521V26.434l23.285,3.044V29.2
		L12.321,9.803l9.703-5.552l9.705,22.183h0.275l9.703-22.183L51.133,9.557z"/>
	<path id="calculate" display="none" d="M53.684,4.031H10.286c-3.378,0-6.236,2.857-6.236,6.233v43.528
		c0,3.39,2.858,6.235,6.236,6.235h43.528c3.377,0,6.229-2.842,6.229-6.235V10.264C59.922,6.758,57.189,4.031,53.684,4.031z
		 M35.232,16.633l3.25-3.249l4.418,4.407l4.406-4.407l3.248,3.249l-4.408,4.407l4.408,4.42l-3.248,3.245L42.9,24.421l-4.418,4.285
		l-3.25-3.245l4.418-4.42L35.232,16.633z M14.184,18.711h15.592v4.688H14.184V18.711z M30.426,44.438H24.19v6.252h-4.678v-6.252
		h-6.236V39.76h6.236v-6.236h4.678v6.236h6.236V44.438z M50.564,48.206h-15.59v-4.549h15.592v4.549H50.564z M50.564,40.539h-15.59
		v-4.678h15.592v4.678H50.564z"/>
	<path id="print" display="none" d="M51.613,20.763c2.242,0,4.262,0.826,5.904,2.48c1.649,1.653,2.484,3.672,2.484,5.904v17.011
		h-11.22v11.223H15.111V46.158H4.008V29.147c0-2.234,0.828-4.251,2.48-5.904c1.654-1.646,3.663-2.48,5.907-2.48H51.613z
		 M48.896,6.588v11.221H15.111V6.588H48.896z M43.227,51.71V37.652H20.781V51.71H43.227L43.227,51.71z M49.604,31.157
		c0.463,0.472,1.188,0.827,2.01,0.827c0.813,0,1.404-0.238,1.992-0.827c0.599-0.463,0.828-1.183,0.828-2.01
		c0-0.813-0.229-1.401-0.828-1.993c-0.588-0.591-1.308-0.826-1.992-0.826c-0.821,0-1.42,0.235-2.01,0.826
		c-0.473,0.592-0.826,1.299-0.826,1.993C48.896,29.974,49.131,30.684,49.604,31.157z"/>
	<path id="membership" display="none" d="M60.004,15.23v33.506c0,1.172-0.469,2.227-1.299,3.164
		c-0.813,0.813-1.882,1.289-3.053,1.289H8.339c-1.171,0-2.225-0.461-3.045-1.289c-0.822-0.82-1.29-1.877-1.29-3.164V15.23
		c0-1.171,0.468-2.226,1.29-3.162c0.818-0.937,1.873-1.291,3.045-1.291h47.212c1.174,0,2.227,0.459,3.057,1.291
		C59.535,13.004,60.004,14.059,60.004,15.23z M56.49,48.736V17.925H7.521v30.812c0,0.232,0.117,0.475,0.233,0.592
		c0.118,0.128,0.352,0.229,0.586,0.229h47.212c0.235,0,0.47-0.119,0.589-0.229C56.373,49.206,56.49,48.97,56.49,48.736z
		 M28.49,40.652c0,1.046-0.235,1.873-0.82,2.563c-0.586,0.713-1.289,1.057-2.108,1.057H13.964c-0.82,0-1.523-0.353-2.109-1.057
		c-0.587-0.703-0.819-1.521-0.819-2.563c0-0.951,0.117-1.885,0.232-2.813c0.119-0.817,0.353-1.642,0.703-2.462
		c0.353-0.816,0.822-1.402,1.406-1.885c0.587-0.459,1.405-0.704,2.226-0.704c1.17,1.171,2.577,1.757,4.217,1.757
		c1.639,0,3.047-0.586,4.218-1.757c0.821,0,1.641,0.228,2.226,0.704c0.586,0.467,1.054,1.053,1.405,1.885
		c0.352,0.809,0.586,1.632,0.703,2.462C28.49,38.78,28.49,39.715,28.49,40.652z M23.454,24.718c1.054,1.056,1.521,2.229,1.521,3.75
		c0,1.521-0.468,2.695-1.521,3.75c-1.055,1.046-2.226,1.521-3.75,1.521c-1.406,0-2.695-0.468-3.75-1.521
		c-1.054-1.055-1.521-2.228-1.521-3.75c0-1.522,0.468-2.694,1.521-3.75c1.055-1.045,2.226-1.521,3.75-1.521
		S22.398,23.665,23.454,24.718z M52.975,25.774v1.757c0,0.235-0.127,0.459-0.229,0.586c-0.12,0.116-0.354,0.234-0.586,0.234H32.824
		c-0.235,0-0.468-0.127-0.586-0.234c-0.116-0.127-0.236-0.351-0.236-0.586v-1.757c0-0.236,0.12-0.469,0.236-0.585
		c0.116-0.127,0.351-0.235,0.586-0.235h19.214c0.222,0,0.458,0.118,0.583,0.235C52.975,25.305,52.975,25.539,52.975,25.774z
		 M42.549,32.921v1.759c0,0.231-0.117,0.467-0.234,0.586c-0.112,0.127-0.352,0.231-0.586,0.231h-8.785
		c-0.231,0-0.462-0.117-0.583-0.231c-0.116-0.119-0.234-0.354-0.234-0.586v-1.759c0-0.235,0.128-0.459,0.234-0.586
		c0.12-0.116,0.35-0.233,0.583-0.233h8.785c0.234,0,0.474,0.128,0.586,0.233C42.432,32.452,42.549,32.566,42.549,32.921z
		 M52.975,39.949v1.759c0,0.231-0.127,0.468-0.229,0.586c-0.12,0.128-0.354,0.231-0.586,0.231H32.824
		c-0.235,0-0.468-0.116-0.586-0.231c-0.116-0.118-0.236-0.354-0.236-0.586v-1.759c0-0.234,0.12-0.458,0.236-0.586
		c0.116-0.117,0.351-0.232,0.586-0.232h19.214c0.222,0,0.458,0.127,0.583,0.232C52.975,39.48,52.975,39.6,52.975,39.949z
		 M52.975,32.921v1.759c0,0.231-0.127,0.467-0.229,0.586c-0.12,0.127-0.354,0.231-0.586,0.231h-5.271
		c-0.23,0-0.47-0.117-0.588-0.231c-0.23-0.119-0.23-0.354-0.23-0.586v-1.759c0-0.235,0.117-0.459,0.23-0.586
		c0.118-0.116,0.354-0.233,0.588-0.233h5.271c0.23,0,0.466,0.128,0.586,0.233C52.975,32.452,52.975,32.566,52.975,32.921z"/>
	<path id="barcode" display="none" d="M5.994,54.128H4.005V9.831h1.989V54.128z M12.908,54.128H8.925V9.831h3.983V54.128z
		 M17.945,54.128h-1.993V9.831h1.993V54.128z M21.927,54.128h-1.991V9.831h1.991V54.128z M25.912,54.128H23.92V9.831h1.992V54.128z
		 M33.527,54.128h-3.983V9.831h3.983V54.128z M40.792,54.128h-3.981V9.831h3.981V54.128z M52.742,54.128h-3.984V9.831h3.984V54.128z
		 M60.005,54.128h-3.983V9.831h3.983V54.128z M45.126,54.128h-1.991V9.831h1.991V54.128z"/>
	<path id="exclamation" display="none" d="M12.216,11.688C17.693,6.211,24.288,3.473,32,3.473s14.307,2.739,19.784,8.216
		S60,23.761,60,31.473s-2.738,14.307-8.216,19.784C46.307,56.734,39.712,59.473,32,59.473s-14.307-2.738-19.784-8.216
		S4,39.186,4,31.473C4,23.76,6.739,17.166,12.216,11.688z M34.762,34.232V17.407H29.24v16.827h5.521V34.232L34.762,34.232z
		 M34.762,45.538v-5.652H29.24v5.652H34.762z"/>
	<path id="exclamation-o" display="none" d="M12.216,11.688C17.693,6.211,24.288,3.473,32,3.473s14.307,2.739,19.784,8.216
		S60,23.761,60,31.473s-2.738,14.307-8.216,19.784C46.307,56.734,39.712,59.473,32,59.473s-14.307-2.738-19.784-8.216
		S4,39.186,4,31.473C4,23.76,6.739,17.166,12.216,11.688z M16.16,47.313c4.426,4.43,9.706,6.643,15.84,6.643
		s11.415-2.213,15.841-6.643c4.425-4.426,6.638-9.705,6.638-15.836c0-6.135-2.213-11.415-6.638-15.84
		c-4.426-4.427-9.706-6.64-15.841-6.64s-11.415,2.213-15.84,6.639c-4.425,4.426-6.639,9.706-6.639,15.84
		C9.521,37.607,11.734,42.889,16.16,47.313z M29.239,17.407h5.521v16.827h-5.521V17.407z M29.239,39.886h5.521v5.652h-5.521V39.886z
		"/>
	<path id="cancelled-o" display="none" d="M12.216,12.216C17.693,6.739,24.288,4,32,4s14.307,2.739,19.784,8.216
		C57.262,17.693,60,24.288,60,32s-2.738,14.307-8.216,19.784C46.307,57.261,39.712,60,32,60s-14.307-2.738-19.784-8.216
		S4,39.712,4,32S6.739,17.693,12.216,12.216z M16.16,47.841c4.426,4.425,9.706,6.638,15.84,6.638s11.415-2.213,15.841-6.638
		c4.425-4.426,6.638-9.706,6.638-15.841s-2.213-11.415-6.638-15.84C43.415,11.734,38.135,9.521,32,9.521s-11.415,2.213-15.84,6.639
		C11.735,20.586,9.521,25.865,9.521,32S11.734,43.415,16.16,47.841z M39.23,20.826l3.938,3.944L35.943,32l7.229,7.23L39.23,43.17
		L32,35.943l-7.23,7.229l-3.944-3.941l7.23-7.229l-7.23-7.23l3.944-3.944l7.23,7.23L39.23,20.826z"/>
</g>
<g id="Commerce:_OmniPortal">
	<g id="sidebar-menu" display="none">
		<rect x="4" y="12" display="inline" width="56" height="6"/>
		<rect x="4" y="29" display="inline" width="56" height="6"/>
		<rect x="4" y="46" display="inline" width="56" height="6"/>
	</g>
	<path id="home" display="none" d="M4,35.113h24.889V4H4V35.113z M4,60h24.889V41.333H4V60z M35.113,60H60V28.889H35.113V60z
		 M35.113,4v18.667H60V4H35.113z"/>
	<path id="settings" display="none" d="M32,20.801c2.969,0,5.82,1.178,7.921,3.281c2.101,2.1,3.277,4.948,3.277,7.918
		s-1.179,5.82-3.277,7.921c-2.101,2.101-4.952,3.278-7.921,3.278c-2.971,0-5.819-1.178-7.919-3.278
		C21.978,37.82,20.799,34.97,20.799,32s1.18-5.818,3.282-7.918C26.181,21.979,29.03,20.801,32,20.801z M32,26.398
		c-1.486,0-2.91,0.591-3.96,1.641C26.99,29.09,26.4,30.514,26.4,32c0,1.486,0.59,2.91,1.641,3.961c1.05,1.05,2.474,1.641,3.96,1.641
		c1.485,0,2.911-0.591,3.96-1.641c1.051-1.051,1.641-2.475,1.641-3.961c0-1.486-0.59-2.91-1.641-3.961
		C34.911,26.989,33.484,26.398,32,26.398z M26.4,60c-0.699,0-1.288-0.502-1.4-1.175l-1.035-7.419
		c-1.765-0.702-3.276-1.654-4.733-2.772l-6.971,2.828c-0.617,0.224-1.373,0-1.708-0.617l-5.602-9.688
		c-0.364-0.614-0.195-1.372,0.336-1.792l5.908-4.646L11,32l0.195-2.799l-5.908-4.564c-0.532-0.42-0.701-1.178-0.336-1.792
		l5.602-9.688c0.334-0.617,1.091-0.867,1.708-0.617l6.971,2.803c1.457-1.093,2.969-2.045,4.733-2.744L25,5.175
		C25.112,4.502,25.701,4,26.4,4h11.202c0.699,0,1.287,0.502,1.397,1.175l1.037,7.422c1.766,0.699,3.278,1.651,4.731,2.744
		l6.974-2.803c0.616-0.25,1.37,0,1.709,0.617l5.599,9.688c0.364,0.614,0.196,1.372-0.335,1.792L52.805,29.2l0.196,2.8l-0.196,2.799
		l5.909,4.564c0.531,0.42,0.699,1.178,0.335,1.792l-5.599,9.688c-0.339,0.617-1.093,0.87-1.709,0.617l-6.974-2.803
		c-1.453,1.093-2.976,2.045-4.731,2.747l-1.037,7.419C38.889,59.498,38.301,60,37.602,60H26.4z M29.901,9.598l-1.037,7.311
		c-3.36,0.698-6.328,2.49-8.484,4.984l-6.748-2.914l-2.1,3.639l5.908,4.342c-1.121,3.278-1.121,6.832,0,10.08l-5.937,4.367
		l2.101,3.643l6.804-2.914c2.156,2.466,5.096,4.257,8.428,4.929l1.037,7.338h4.257l1.033-7.307c3.334-0.703,6.274-2.494,8.431-4.96
		L50.4,45.05l2.1-3.643l-5.939-4.339c1.123-3.276,1.123-6.833,0-10.108l5.91-4.342l-2.101-3.639l-6.749,2.914
		c-2.156-2.494-5.123-4.286-8.482-4.958l-1.037-7.337H29.901z"/>
	<g id="store-group" display="none">
		<path display="inline" d="M39.262,15.963c3.301,0,5.982-2.678,5.982-5.979C45.244,6.678,42.563,4,39.262,4
			c-3.307,0-5.984,2.678-5.984,5.983C33.277,13.285,35.955,15.963,39.262,15.963z M6.364,29.435
			c1.607-11.98,11.082-21.466,23.055-23.09C29,7.478,28.771,8.702,28.771,9.979c0,0.86,0.104,1.691,0.297,2.492
			c-8.384,1.621-14.986,8.239-16.585,16.633c-0.807-0.199-1.651-0.305-2.52-0.305C8.699,28.8,7.486,29.024,6.364,29.435z
			 M11.805,49.604C16.735,55.93,24.429,60,33.074,60c3.601,0,7.039-0.705,10.184-1.989c-1.601-1.31-2.808-3.085-3.41-5.116
			c-2.127,0.729-4.404,1.115-6.771,1.115c-6.312,0-11.972-2.785-15.814-7.201C15.789,48.232,13.905,49.23,11.805,49.604z
			 M60.023,33.049c0,3.618-0.711,7.068-2.006,10.221c-1.313-1.602-3.078-2.813-5.109-3.418c0.729-2.135,1.13-4.422,1.13-6.803
			c0-6.313-2.793-11.973-7.208-15.815c1.418-1.481,2.4-3.372,2.762-5.481C55.939,16.683,60.023,24.389,60.023,33.049z M9.964,45.271
			c3.308,0,5.99-2.688,5.99-5.99c0-3.309-2.683-5.99-5.99-5.99c-3.307,0-5.988,2.682-5.988,5.99
			C3.976,42.587,6.657,45.271,9.964,45.271z M55.891,49.896c0,3.307-2.681,5.981-5.992,5.981c-3.307,0-5.979-2.687-5.979-5.981
			c0-3.313,2.688-5.989,5.979-5.989C53.21,43.907,55.891,46.588,55.891,49.896z"/>
	</g>
	<g id="down-triangle" display="none">
		<path display="inline" d="M18.5,28h27L32,41.5L18.5,28z"/>
	</g>
	<g id="contacts" display="none">
		<path display="inline" d="M13.333,4h37.334v4.666H13.333V4z M13.333,13.334h37.334c2.565,0,4.666,2.1,4.666,4.666v28
			c0,2.566-2.101,4.666-4.666,4.666H13.333c-2.566,0-4.666-2.1-4.666-4.666V18C8.667,15.434,10.767,13.334,13.333,13.334z
			 M13.333,46h37.334V18H13.333V46z M13.333,55.334V60h37.334v-4.666H13.333z M32.001,32c3.22,0,5.832-2.614,5.832-5.834
			c0-3.22-2.612-5.832-5.832-5.832c-3.222,0-5.834,2.612-5.834,5.832C26.167,29.386,28.779,32,32.001,32z M43.667,41.311
			c0-4.877-7.724-6.977-11.666-6.977c-3.944,0-11.668,2.1-11.668,6.977v2.355h23.334V41.311z"/>
	</g>
	<g id="item" display="none">
		<path display="inline" d="M57.201,44.602c0,1.063-0.588,1.987-1.483,2.463L33.598,59.5C33.148,59.833,32.587,60,32,60
			s-1.148-0.167-1.596-0.502L8.284,47.064c-0.897-0.479-1.485-1.4-1.485-2.465V19.399c0-1.063,0.587-1.988,1.485-2.464l22.12-12.433
			C30.852,4.167,31.413,4,32,4s1.148,0.167,1.598,0.502l22.12,12.433c0.896,0.476,1.483,1.401,1.483,2.464V44.602z M32,10.018
			l-5.293,2.999l16.495,9.49l5.487-3.107L32,10.018z M15.311,19.399L32,28.781l5.486-3.081l-16.462-9.519L15.311,19.399z
			 M12.399,42.95l16.8,9.463V33.624l-16.8-9.437V42.95z M51.604,42.95V24.187l-16.801,9.437v18.789L51.604,42.95z"/>
	</g>
	<g id="reports" display="none">
		<path display="inline" d="M23.158,46.734h-5.896V26.106h5.896V46.734z M34.945,46.734h-5.892v-29.47h5.892V46.734z M46.736,46.734
			H40.84V34.949h5.896V46.734z M54.104,52.923H9.896V11.369h44.209v41.554H54.104z M54.104,5.475H9.896
			C6.652,5.475,4,8.127,4,11.369v41.264c0,3.24,2.652,5.893,5.896,5.893h44.209c3.242,0,5.896-2.646,5.896-5.893V11.369
			C60,8.127,57.348,5.475,54.104,5.475z"/>
	</g>
	<g id="employees" display="none">
		<path display="inline" d="M4,10.222V53.78C4,57.2,6.769,60,10.222,60h43.557C57.2,60,60,57.2,60,53.78V10.222
			C60,6.8,57.2,4,53.779,4H10.222C6.769,4,4,6.8,4,10.222z M41.333,22.667C41.333,27.831,37.162,32,32,32
			c-5.164,0-9.333-4.169-9.333-9.333s4.169-9.333,9.333-9.333C37.162,13.333,41.333,17.502,41.333,22.667z M13.333,47.553
			c0-6.22,12.445-9.639,18.667-9.639c6.221,0,18.667,3.419,18.667,9.639v3.114H13.333V47.553z"/>
	</g>
	<g id="mobile-horizontal" display="none">
		<path display="inline" d="M49.816,47.271H14.184V16.728h35.632V47.271L49.816,47.271z M54.908,11.636H9.092
			C6.267,11.636,4,13.903,4,16.728v30.543c0,1.352,0.537,2.646,1.491,3.601c0.955,0.955,2.25,1.492,3.601,1.492h45.816
			c1.352,0,2.646-0.537,3.601-1.492C59.463,49.918,60,48.623,60,47.271V16.728C60,13.903,57.709,11.636,54.908,11.636z"/>
	</g>
	<g id="business" display="none">
		<path display="inline" d="M32,18V6.799H4v50.402h56V18H32z M15.199,51.604H9.598V46h5.601V51.604z M15.199,40.4H9.598V34.8h5.601
			V40.4z M15.199,29.199H9.598v-5.6h5.601V29.199z M15.199,18H9.598v-5.601h5.601V18z M26.399,51.604h-5.598V46h5.598V51.604z
			 M26.399,40.4h-5.598V34.8h5.598V40.4z M26.399,29.199h-5.598v-5.6h5.598V29.199z M26.399,18h-5.598v-5.601h5.598V18z
			 M54.402,51.604H32V46h5.602v-5.6H32V34.8h5.602v-5.604H32v-5.6h22.402V51.604z M48.801,29.199h-5.602v5.604h5.602V29.199z
			 M48.801,40.4h-5.602v5.598h5.602V40.4z"/>
	</g>
	<g id="hierarchy" display="none">
		<path display="inline" d="M4,4h18.667v12.445H4V4z M41.333,25.778H60V38.22H41.333V25.778z M41.333,47.553H60V60H41.333V47.553z
			 M35.113,35.113H16.445v15.554h18.668v6.22H16.445h-6.223v-34.22h6.223v6.222h18.668V35.113z"/>
	</g>
	<g id="star-o" display="none">
		<path display="inline" d="M32,42.895L21.473,49.25l2.77-11.986l-9.296-8.063l12.266-1.037L32,16.853l4.787,11.311l12.268,1.037
			l-9.298,8.063l2.772,11.986L32,42.895z M60,25.673l-20.131-1.709L32,5.398l-7.869,18.566L4,25.673l15.258,13.244l-4.564,19.687
			L32,48.157l17.307,10.444l-4.595-19.688L60,25.673z"/>
	</g>
	<path id="close" display="none" d="M37.123,32.574L60.131,5.147h-6.994c-0.412,0-0.807,0.185-1.078,0.5L32.547,27.122L13.57,4.5
		C13.307,4.184,12.913,4,12.492,4H5.617C5.021,4,4.774,4.927,5.159,5.383l22.812,27.191L4.963,60h6.995
		c0.412,0,0.807-0.184,1.078-0.5l18.976-22.622L50.988,59.5c0.264,0.316,0.658,0.5,1.078,0.5h6.994c0.598,0,0.922-0.691,0.535-1.146
		L37.123,32.574z"/>
	<path id="filter" display="none" d="M4,13h56v6H4V13z M13,35v-6h38v6H13z M25.5,50v-6h13v6H25.5z"/>
	<g id="quick-service-template" display="none">
		<path display="inline" d="M6.233,33.469l4.524,22.805c0.108,0.547,0.588,0.938,1.145,0.938h14.229
			c0.557,0,1.037-0.394,1.145-0.938L31.8,33.469c1.257-0.154,2.239-1.217,2.239-2.516c-0.033-0.145,0.604-6.712-5.068-11.75
			l2.992-11.29c0.165-0.622-0.207-1.261-0.829-1.426c-0.625-0.165-1.262,0.207-1.427,0.83l-2.749,10.376
			c-2.307-1.444-5.024-2.292-7.94-2.292C10.738,15.399,4,22.137,4,30.419v0.533C4,32.25,4.979,33.313,6.233,33.469z M31.706,30.436
			v0.517c0,0.121-0.094,0.213-0.213,0.213c-0.388,0-5.813,0-5.691,0l0.252-0.95h5.438C31.614,30.216,31.704,30.308,31.706,30.436z
			 M23.388,31.166c-7.659,0-11.671,0-16.841,0c-0.12,0-0.214-0.093-0.214-0.213v-0.517c0.002-0.128,0.092-0.22,0.214-0.22H23.64
			L23.388,31.166z M25.174,54.879H12.861L8.618,33.5H22.77l-3.428,12.936c-0.165,0.623,0.206,1.264,0.829,1.43
			c0.629,0.162,1.263-0.213,1.426-0.83L25.184,33.5h4.232L25.174,54.879z M31.451,27.883h-4.779l1.616-6.1
			C29.853,23.459,30.977,25.553,31.451,27.883z M19.02,17.733c2.721,0,5.243,0.865,7.312,2.329l-2.073,7.821H6.588
			C7.767,22.099,12.893,17.733,19.02,17.733z"/>
		<path display="inline" d="M50.068,43.042c-1.701-0.685-3.687,0.106-4.387,1.872c-0.334,0.833-0.324,1.748,0.028,2.58
			c0.354,0.828,1.011,1.47,1.842,1.806c1.699,0.683,3.681-0.112,4.39-1.876C52.619,45.717,51.818,43.736,50.068,43.042z
			 M49.775,46.559c-0.205,0.508-0.834,0.782-1.353,0.575c-0.524-0.21-0.792-0.819-0.573-1.353c0.209-0.535,0.813-0.788,1.352-0.573
			S49.99,46.016,49.775,46.559z"/>
		<path display="inline" d="M59.291,54.52c0.284-0.123,0.509-0.352,0.625-0.639s0.111-0.609-0.01-0.895
			C55.004,41.504,51.76,33.908,45.67,19.638c-0.143-0.486-0.57-0.848-1.104-0.848h-0.012c-0.004,0-0.005,0.001-0.007,0.001
			s-0.004-0.001-0.007-0.001h-0.012c-0.002,0-0.004,0.001-0.004,0.001c-0.002,0-0.004-0.001-0.004-0.001
			c-0.401,0.005-0.887,0.253-1.076,0.747c-1.389,3.454,5.027-12.512-13.572,33.779c-0.116,0.287-0.112,0.607,0.009,0.896
			c0.121,0.284,0.35,0.509,0.637,0.625c4.48,1.802,9.183,2.716,13.976,2.716C49.598,57.553,54.574,56.53,59.291,54.52z
			 M34.086,49.109l10.482-26.104l11.045,25.871C48.738,51.498,41.143,51.639,34.086,49.109z M33.211,51.283
			c7.573,2.736,15.835,2.646,23.321-0.25l0.76,1.781c-7.938,3.088-16.797,3.201-24.809,0.273L33.211,51.283z"/>
		<path display="inline" d="M42.324,41.784c-1.699-0.683-3.68,0.112-4.387,1.876c-0.688,1.725,0.151,3.689,1.873,4.382
			c1.705,0.685,3.685-0.11,4.385-1.872c0.337-0.838,0.326-1.756-0.029-2.589C43.811,42.754,43.156,42.117,42.324,41.784z
			 M42.029,45.305c-0.205,0.516-0.821,0.782-1.348,0.572c-0.531-0.212-0.789-0.82-0.58-1.35c0.205-0.506,0.801-0.799,1.354-0.577
			C41.986,44.161,42.247,44.766,42.029,45.305z"/>
		<path display="inline" d="M41.764,34.639c-0.793,2.008,0.187,4.297,2.188,5.109c1.993,0.795,4.289-0.146,5.101-2.184
			c0.803-2.016-0.179-4.301-2.178-5.101C44.891,31.66,42.598,32.586,41.764,34.639z M43.93,35.508
			c0.328-0.805,1.231-1.217,2.072-0.877c0.813,0.323,1.207,1.252,0.882,2.069c-0.313,0.79-1.282,1.192-2.063,0.883
			C44.008,37.253,43.609,36.316,43.93,35.508z"/>
	</g>
	<g id="full-service-template" display="none">
		<path display="inline" d="M50.898,44.006l-11.797-6.145c-0.002-1.881,0.008-4.495-0.009-4.807
			c3.253-2.936,5.046-6.589,5.072-10.431c0-0.001,0-0.001,0-0.002c0.06-0.567,0.084-1.102,0.081-1.591
			c1.229-5.193,1.955-11.15-3.311-12.368C40.281,3.744,29.91,2.707,26.537,5.594L23.47,8.241c-5.331,1.569-5.182,7.045-3.751,12.407
			v1.882c0,3.932,1.831,7.663,5.186,10.642v4.689l-11.619,6.185c-3.609,1.853-5.851,5.521-5.851,9.568V60h1.778v-6.386
			c0-3.38,1.872-6.439,4.896-7.993l10.82-5.762v5.344c0,0.719,0.803,1.131,1.384,0.74L32,42.129l5.686,3.814
			c0.275,0.184,0.625,0.197,0.914,0.045c0.289-0.154,0.471-0.455,0.471-0.783v-5.357l10.994,5.73
			c2.912,1.57,4.722,4.602,4.722,7.904V60h1.776v-6.518C56.563,49.523,54.396,45.896,50.898,44.006z M32,39.936l-5.316-4.103v-1.269
			c0.963,0.718,4.413,2.701,5.264,2.701c0.846,0,4.155-1.927,5.377-2.797v1.356L32,39.936z M24.133,9.902
			c0.346-0.093,0.188-0.085,3.508-2.909c4.588-2.68,11.858-0.533,11.541,2.319c-0.055,0.483,0.289,0.919,0.771,0.979
			c1.234,0.157,2.099,0.612,2.639,1.393c0.887,1.28,0.891,3.39,0.579,5.586h-1.914c-0.062,0-0.095-0.029-0.091-0.012v-2.357
			c0-0.986-0.839-1.789-1.871-1.789h-1.557l-1.09-1.817c-0.144-0.234-0.379-0.391-0.649-0.425c-0.261-0.033-0.539,0.055-0.733,0.246
			l-2.279,2.223h-9.462c-1.031,0-1.87,0.802-1.87,1.788v2.593h-0.758C20.274,14.059,20.56,10.86,24.133,9.902z M21.498,22.53
			l0.001-2c0-0.079-0.011-0.157-0.031-0.233c-0.075-0.275-0.133-0.534-0.197-0.799h1.271c0.492,0,0.889-0.397,0.889-0.889
			l-0.006-3.46c0.005-0.007,0.036-0.033,0.098-0.033h9.827c0.23,0,0.453-0.09,0.621-0.253l1.731-1.689l0.771,1.286
			c0.161,0.268,0.45,0.431,0.762,0.431h2.063c0.061,0,0.092,0.025,0.094,0.013v2.355c0,0.986,0.838,1.789,1.868,1.789h1.604
			c-0.115,0.571-0.239,1.138-0.367,1.68c-0.02,0.073-0.025,0.148-0.025,0.223c0.008,0.424-0.012,0.894-0.06,1.401
			c-0.015,0.057-0.019,0.117-0.019,0.178c0,6.275-4.783,10.209-10.449,12.924c-0.107-0.056-0.173-0.106-0.39-0.206
			C26.186,33.016,21.498,28.375,21.498,22.53z M26.709,43.538v-5.44l3.771,2.911L26.709,43.538z M37.293,43.538l-3.771-2.529
			l3.771-2.911V43.538z"/>
	</g>
	<g id="bar-template" display="none">
		<path display="inline" fill="#555555" d="M60,29.2c-24.874,0-45.063,0-56,0v5.601h1.867v24.266c0,0.248,0.098,0.485,0.273,0.66
			C6.314,59.902,6.552,60,6.8,60h50.399c0.248,0,0.484-0.098,0.66-0.273c0.177-0.175,0.272-0.412,0.272-0.66V34.801H60V29.2z
			 M15.2,58.133v-4.665c0-0.247,0.099-0.485,0.273-0.659c0.175-0.178,0.413-0.273,0.66-0.273H18v5.599L15.2,58.133L15.2,58.133z
			 M19.867,58.133v-5.599h1.867c0.248,0,0.484,0.097,0.66,0.272c0.175,0.176,0.273,0.413,0.273,0.66v4.665L19.867,58.133
			L19.867,58.133z M28.267,58.133v-4.665c0-0.247,0.099-0.485,0.273-0.659c0.175-0.178,0.413-0.273,0.66-0.273h1.866v5.599
			L28.267,58.133L28.267,58.133z M32.934,58.133v-5.599h1.867c0.247,0,0.484,0.097,0.66,0.272c0.174,0.176,0.273,0.413,0.273,0.66
			v4.665L32.934,58.133L32.934,58.133z M41.334,58.133v-4.665c0-0.247,0.098-0.485,0.271-0.659c0.178-0.178,0.412-0.273,0.662-0.273
			h1.864v5.599L41.334,58.133L41.334,58.133z M46,58.133v-5.599h1.867c0.246,0,0.484,0.097,0.66,0.272
			c0.174,0.176,0.272,0.413,0.272,0.66v4.665L46,58.133L46,58.133z M56.266,58.133h-5.599v-4.665c0-0.741-0.294-1.457-0.819-1.979
			c-0.525-0.525-1.238-0.82-1.979-0.82H46V42.27h1.867c0.742,0,1.453-0.297,1.979-0.82c0.526-0.525,0.82-1.237,0.82-1.98
			c0-0.742-0.294-1.453-0.82-1.979c-0.525-0.525-1.236-0.82-1.979-0.82h-5.6c-0.744,0-1.457,0.295-1.98,0.82s-0.82,1.236-0.82,1.979
			c0,0.743,0.297,1.455,0.82,1.98c0.523,0.523,1.236,0.82,1.98,0.82h1.864v8.398h-1.864c-0.744,0-1.457,0.295-1.98,0.82
			c-0.523,0.522-0.82,1.238-0.82,1.979v4.665h-1.865v-4.665c0-0.741-0.297-1.457-0.82-1.979c-0.525-0.525-1.237-0.82-1.979-0.82
			h-1.866V42.27h1.866c0.742,0,1.454-0.297,1.979-0.82c0.523-0.525,0.82-1.237,0.82-1.98c0-0.742-0.297-1.453-0.82-1.979
			c-0.525-0.525-1.237-0.82-1.979-0.82H29.2c-0.743,0-1.455,0.295-1.98,0.82c-0.525,0.525-0.82,1.236-0.82,1.979
			c0,0.743,0.295,1.455,0.82,1.98c0.525,0.523,1.237,0.82,1.98,0.82h1.866v8.398H29.2c-0.743,0-1.455,0.295-1.98,0.82
			c-0.525,0.522-0.82,1.238-0.82,1.979v4.665h-1.867v-4.665c0-0.741-0.295-1.457-0.82-1.979c-0.525-0.525-1.237-0.82-1.979-0.82
			h-1.867V42.27h1.867c0.743,0,1.455-0.297,1.979-0.82c0.525-0.525,0.82-1.237,0.82-1.98c0-0.742-0.295-1.453-0.82-1.979
			s-1.237-0.82-1.979-0.82h-5.6c-0.743,0-1.455,0.295-1.98,0.82c-0.525,0.525-0.82,1.236-0.82,1.979c0,0.743,0.294,1.455,0.82,1.98
			c0.525,0.523,1.237,0.82,1.98,0.82H18v8.398h-1.866c-0.743,0-1.455,0.295-1.98,0.82c-0.525,0.522-0.82,1.238-0.82,1.979v4.665
			H7.733V34.801h48.533V58.133z M44.133,40.4h-1.865c-0.248,0-0.483-0.099-0.662-0.273c-0.174-0.176-0.271-0.413-0.271-0.66
			c0-0.248,0.099-0.484,0.271-0.658c0.179-0.177,0.414-0.273,0.662-0.273h5.601c0.247,0,0.485,0.098,0.659,0.273
			c0.175,0.174,0.273,0.41,0.273,0.658c0,0.247-0.1,0.484-0.273,0.66S48.115,40.4,47.868,40.4H44.133z M31.066,40.4H29.2
			c-0.248,0-0.485-0.099-0.66-0.273c-0.175-0.176-0.273-0.413-0.273-0.66c0-0.248,0.099-0.484,0.273-0.658
			c0.175-0.177,0.413-0.273,0.66-0.273h5.601c0.247,0,0.484,0.098,0.66,0.273c0.174,0.174,0.273,0.41,0.273,0.658
			c0,0.247-0.101,0.484-0.273,0.66c-0.176,0.176-0.413,0.273-0.66,0.273H31.066z M18,40.4h-1.866c-0.248,0-0.485-0.099-0.66-0.273
			c-0.175-0.176-0.273-0.413-0.273-0.66c0-0.248,0.099-0.484,0.273-0.658c0.175-0.177,0.413-0.273,0.66-0.273h5.6
			c0.248,0,0.484,0.098,0.66,0.273c0.175,0.174,0.273,0.41,0.273,0.658c0,0.247-0.098,0.484-0.273,0.66
			c-0.176,0.176-0.413,0.273-0.66,0.273H18z M58.133,32.934H5.867v-1.866h52.266V32.934z"/>
		<path display="inline" fill="#555555" d="M8.667,15.2H18c0.185,0,0.365-0.055,0.519-0.157c0.153-0.103,0.273-0.248,0.344-0.418
			c0.071-0.171,0.089-0.358,0.053-0.54c-0.036-0.181-0.125-0.347-0.255-0.477l-4.393-4.394V4H12.4v5.213l-4.393,4.394
			c-0.131,0.13-0.22,0.296-0.256,0.477c-0.036,0.182-0.017,0.369,0.054,0.54c0.07,0.17,0.189,0.316,0.343,0.418
			C8.302,15.145,8.482,15.2,8.667,15.2z M13.333,10.919l2.414,2.414H10.92L13.333,10.919z"/>
		<path display="inline" fill="#555555" d="M46,15.2h9.332c0.188,0,0.365-0.055,0.52-0.157c0.153-0.102,0.272-0.248,0.344-0.418
			c0.07-0.171,0.091-0.358,0.055-0.54c-0.037-0.181-0.125-0.347-0.257-0.477l-4.392-4.394V4h-1.867v5.213l-4.395,4.394
			c-0.13,0.13-0.219,0.296-0.255,0.477c-0.037,0.182-0.019,0.369,0.052,0.54c0.071,0.17,0.191,0.316,0.346,0.418
			S45.816,15.2,46,15.2z M50.667,10.919l2.414,2.414h-4.827L50.667,10.919z"/>
	</g>
	<g id="retail-template" display="none">
		<path display="inline" d="M56.218,15.238c-0.063,0-0.196,0-0.263,0l-37.334,0.066l-1.052-6.178c0,0,0,0,0-0.067V8.994V8.928V8.863
			V8.797c0,0,0,0,0-0.066V8.666c0,0,0,0,0-0.066c0,0,0-0.066-0.065-0.066c0,0,0-0.065-0.065-0.065c0,0,0,0-0.065-0.066
			c0,0,0-0.065-0.066-0.065c0,0,0,0-0.066-0.067l-0.065-0.065c0,0,0,0-0.066,0c0,0-0.065,0-0.065-0.065c0,0,0,0-0.065,0
			c0,0-0.066,0-0.066-0.067h-0.066c0,0,0,0-0.066,0L8.498,4.13c-0.657-0.328-1.38,0-1.643,0.592c-0.329,0.658,0,1.38,0.592,1.644
			l7.69,3.68l5.061,30.236c0,0.067,0,0.134,0,0.198l1.249,7.688c0.132,0.589,0.657,1.054,1.25,1.054h0.064c0,0,0,0,0.067,0h28.197
			c0.723,0,1.248-0.595,1.248-1.25c0-0.723-0.592-1.25-1.248-1.25H23.747l-0.854-5.388l29.513-1.713
			c0.393,0,0.722-0.263,0.984-0.522c0.131-0.199,0.262-0.396,0.262-0.593l3.615-21.823C57.335,16.027,56.876,15.371,56.218,15.238z
			 M46.096,37.457l0.524-4.734h5.392l-0.723,4.405L46.096,37.457z M38.012,37.915v-5.192h6.111L43.6,37.587L38.012,37.915z
			 M29.993,38.443l-0.658-5.656h6.177v5.326L29.993,38.443z M53.784,22.337h-5.979l0.527-4.603h6.242L53.784,22.337z M52.471,30.225
			H46.95l0.593-5.325h5.852L52.471,30.225z M38.012,17.735h7.756l-0.523,4.603h-7.229v-4.603H38.012z M35.514,22.337h-7.363
			l-0.525-4.603h7.888V22.337z M44.977,24.9l-0.59,5.325h-6.375V24.9H44.977z M25.129,17.803l0.525,4.6h-5.851l-0.722-4.6H25.129z
			 M20.198,24.9h5.72l0.59,5.325h-5.454L20.198,24.9z M28.415,24.9h7.099v5.325h-6.439L28.415,24.9z M21.447,32.723h5.325
			l0.657,5.785l-4.996,0.264L21.447,32.723z"/>
		<path display="inline" d="M26.967,60c2.288,0,4.141-1.854,4.141-4.143c0-2.287-1.854-4.142-4.141-4.142
			c-2.287,0-4.14,1.854-4.14,4.142C22.828,58.146,24.68,60,26.967,60z"/>
		<path display="inline" d="M46.948,60c2.288,0,4.144-1.854,4.144-4.143c0-2.287-1.855-4.142-4.144-4.142
			c-2.283,0-4.138,1.854-4.138,4.142C42.811,58.146,44.665,60,46.948,60z"/>
	</g>
	<g id="c-store-template" display="none">
		<path display="inline" d="M58.921,30.842h-9.897L34.563,12.45c0.353-0.491,0.492-1.053,0.492-1.685
			c0-1.685-1.406-3.089-3.09-3.089c-1.684,0-3.088,1.404-3.088,3.089c0,0.632,0.21,1.193,0.491,1.685l-14.46,18.392H5.009
			c-0.281,0-0.562,0.141-0.772,0.351c-0.211,0.211-0.281,0.491-0.211,0.772l4.071,23.587c0.071,0.491,0.492,0.771,0.983,0.771h45.84
			c0.49,0,0.842-0.354,0.98-0.771l4.074-23.587c0.066-0.281,0-0.562-0.213-0.772C59.48,30.982,59.201,30.842,58.921,30.842z
			 M47.971,32.807h4.07l-0.491,3.51h-3.931L47.971,32.807z M30.912,13.644c0.351,0.141,0.702,0.21,1.053,0.21
			s0.704-0.069,1.055-0.21l13.336,16.987H17.574L30.912,13.644z M15.96,32.807l0.351,3.51h-3.932l-0.491-3.51H15.96z M6.132,32.807
			h3.861l0.492,3.51H6.764L6.132,32.807z M7.817,42.634l-0.772-4.422h3.65l0.631,4.422H7.817z M8.939,49.023l-0.771-4.422h3.369
			l0.632,4.422H8.939z M9.852,54.427l-0.63-3.51h3.158l0.492,3.51H9.852z M12.66,38.212h3.861l0.422,4.422h-3.651L12.66,38.212z
			 M13.503,44.602h3.58l0.421,4.422h-3.44L13.503,44.602z M14.836,54.427l-0.491-3.51h3.369l0.352,3.51H14.836z M17.925,32.807
			h4.071l0.211,3.51h-3.931L17.925,32.807z M18.417,38.212h3.86l0.281,4.422h-3.72L18.417,38.212z M19.048,44.602h3.58l0.281,4.422
			H19.47L19.048,44.602z M20.032,54.427l-0.352-3.51h3.369l0.211,3.51H20.032z M23.892,32.807h4.071l0.07,3.51h-3.932L23.892,32.807
			z M24.243,38.212h3.861l0.07,4.422h-3.72L24.243,38.212z M24.594,44.602h3.649l0.071,4.422h-3.44L24.594,44.602z M25.155,54.427
			l-0.21-3.438h3.369l0.07,3.51h-3.229V54.427z M33.58,54.427h-3.23l-0.069-3.51h3.367L33.58,54.427z M33.721,49.023H30.28
			l-0.071-4.422h3.65L33.721,49.023z M33.79,42.634h-3.721l-0.07-4.422h3.862L33.79,42.634z M33.93,36.316h-3.931l-0.069-3.51H34
			L33.93,36.316z M38.773,54.427h-3.229l0.069-3.51h3.369L38.773,54.427z M39.055,49.023h-3.438l0.068-4.422h3.649L39.055,49.023z
			 M39.406,42.634h-3.721l0.068-4.422h3.932L39.406,42.634z M39.827,36.316h-3.933l0.07-3.51h4.07L39.827,36.316z M43.898,54.427
			H40.67l0.21-3.51h3.369L43.898,54.427z M44.46,49.023h-3.438l0.279-4.422h3.581L44.46,49.023z M45.092,42.634h-3.721l0.279-4.422
			h3.861L45.092,42.634z M41.723,36.316l0.211-3.51h4.07l-0.352,3.51H41.723z M49.093,54.427h-3.229l0.354-3.51h3.369L49.093,54.427
			z M49.796,49.023h-3.44l0.42-4.422h3.58L49.796,49.023z M46.986,42.634l0.422-4.422h3.861l-0.633,4.422H46.986z M54.077,54.427
			h-3.019l0.489-3.51h3.158L54.077,54.427z M54.988,49.023H51.76l0.633-4.422h3.369L54.988,49.023z M56.113,42.634h-3.44
			l0.632-4.422h3.649L56.113,42.634z M57.165,36.316h-3.72l0.49-3.51h3.86L57.165,36.316z"/>
	</g>
</g>
</svg>
