<svg xmlns="http://www.w3.org/2000/svg" xml:space="preserve" version="1.0" viewBox="0 0 300 230"><g fill="#D25335"><path d="M277.36 18.216h8.73c.609 0 1.016.103 1.219.307.304.304.406 1.22.406 2.645v1.019h5.481v-3.766c-.101-1.119-.507-1.833-1.117-2.138-.406-.203-.914-.306-1.727-.406 1.219-.205 2.031-.611 2.438-1.222.406-.509.61-1.729.61-3.358 0-.814 0-1.526-.103-2.137 0-.51-.203-1.019-.508-1.527-.608-.917-1.625-1.527-2.944-1.628-.61-.103-2.334-.103-5.28-.103h-12.792v16.284h5.584v-3.97zm0-7.937H284.465c1.625 0 2.538.101 2.742.203.406.101.609.611.609 1.527 0 .813-.203 1.424-.507 1.526-.203.203-1.117.203-2.844.306H277.36v-3.562zM266.293 33.787C245.583 12.926 216.851 0 185.279 0H114.72C83.045 0 54.415 12.926 33.603 33.787 12.791 54.651 0 83.349 0 115c0 63.301 51.473 115 114.721 115h30.051V97.7H65.177v40.912h29.036v47.424c-30.762-8.955-53.3-37.452-53.3-71.036 0-20.354 8.224-38.774 21.624-52.208 13.401-13.433 31.878-21.676 52.184-21.676h70.559c20.304 0 38.781 8.243 52.081 21.676 13.401 13.434 21.726 31.855 21.726 52.208 0 33.584-22.64 62.081-53.401 71.036l.102-88.54H155.23L155.125 230h30.154c40.913 0 76.954-21.779 97.258-54.344A113.79 113.79 0 0 0 300 115c0-22.289-6.396-43.047-17.463-60.757-4.568-7.428-10.05-14.247-16.244-20.456z"/><path d="M267.207 25.647c.711.609 1.422 1.12 2.235 1.423.709.306 1.826.611 3.247.713.813.102 2.539.102 5.28.203 1.625 0 3.147.102 4.568.102h3.046c4.061 0 7.208-.203 9.239-.713 2.538-.509 4.162-2.239 4.669-4.986.305-2.036.508-4.681.508-8.141 0-5.802-.508-9.465-1.523-10.993-.813-1.322-1.929-2.136-3.554-2.442C292.893.306 289.035 0 283.553 0h-1.016c-5.279.101-9.137.203-11.371.611-2.639.406-4.364 1.729-5.076 3.867-.609 1.935-.914 5.088-.914 9.668 0 4.07.203 7.022.609 8.752.205 1.017.712 1.934 1.422 2.749zm1.726-19.033c.407-1.729 1.523-2.748 3.452-3.155 1.624-.304 4.569-.507 8.833-.507h1.319c2.945.102 5.178.102 6.6.102 1.726.101 3.046.202 3.857.405a4.05 4.05 0 0 1 2.133.917c.508.51.913 1.119 1.117 1.935.304 1.323.507 3.867.507 7.531 0 3.563-.203 6.208-.609 7.733-.203.815-.507 1.426-1.015 1.935-.508.509-1.117.917-1.828 1.019-.812.203-1.625.304-2.538.408-.812 0-3.554.1-7.919.202h-.305l-6.294-.202c-1.726 0-3.146-.104-4.265-.307-1.726-.408-2.74-1.425-3.046-3.155-.304-1.425-.507-3.969-.507-7.632.001-3.463.204-5.804.508-7.229z"/></g></svg>